<?xml version="1.0" encoding="utf-8"?>
<!-- Generator: Adobe Illustrator 19.2.1, SVG Export Plug-In . SVG Version: 6.00 Build 0)  -->
<svg version="1.1" id="Layer_1" xmlns="http://www.w3.org/2000/svg" xmlns:xlink="http://www.w3.org/1999/xlink" x="0px" y="0px"
	 viewBox="0 0 70 69.5" enable-background="new 0 0 70 69.5" xml:space="preserve">
<rect y="-0.5" fill="#EF3F3F" width="70" height="70"/>
<path fill="#FFFFFF" d="M28.6,27.4c-0.1,0.1-0.3,0.2-0.7,0.2h-1.2c-0.4,0-0.6-0.1-0.7-0.2c-0.1-0.1-0.2-0.3-0.2-0.7v-2.3H23v2.7
	c0,1.7,0.9,2.6,2.8,2.6h2.9c1.9,0,2.8-0.9,2.8-2.6v-5.3c0-1.7-0.9-2.6-2.7-2.6h-2.2c-0.4,0-0.6-0.1-0.7-0.2
	c-0.1-0.1-0.2-0.3-0.2-0.7v-4.1c0-0.4,0.1-0.6,0.2-0.7c0.1-0.1,0.4-0.2,0.7-0.2h1.2c0.4,0,0.6,0.1,0.7,0.2c0.1,0.1,0.2,0.3,0.2,0.7
	v2.3h2.7v-2.7c0-1.7-0.9-2.6-2.8-2.6h-2.9c-1.8,0-2.8,0.9-2.8,2.6v4.9c0,1.8,0.9,2.6,2.7,2.6h2.2c0.4,0,0.6,0.1,0.7,0.2
	c0.1,0.1,0.2,0.3,0.2,0.7v4.5C28.7,27,28.7,27.3,28.6,27.4z"/>
<path fill="#FFFFFF" d="M42.6,13.4l1.7,9.8H41L42.6,13.4z M48.1,29.7l-3.5-18.6h-3.9l-3.3,18.6H40l0.7-4.3h3.9l0.7,4.3H48.1z"/>
<path fill="#FFFFFF" d="M31.7,36c0-1.7-0.9-2.6-2.8-2.6h-3.2c-1.8,0-2.8,0.9-2.8,2.6v13.4c0,1.8,0.9,2.6,2.8,2.6h3.2
	c1.8,0,2.8-0.9,2.8-2.6v-7h-4.2v2.1H29v4.5c0,0.4-0.1,0.6-0.2,0.7c-0.1,0.1-0.4,0.2-0.7,0.2h-1.5c-0.4,0-0.6-0.1-0.7-0.2
	c-0.1-0.1-0.2-0.3-0.2-0.7V36.4c0-0.4,0.1-0.6,0.2-0.7c0.1-0.1,0.4-0.2,0.7-0.2h1.5c0.4,0,0.6,0.1,0.7,0.2c0.1,0.1,0.2,0.3,0.2,0.7
	v2.5h2.7V36z"/>
<path fill="#FFFFFF" d="M41.6,43.5h4.3v-2.2h-4.3v-5.7h5.2v-2.2h-7.9V52h8.1v-2.2h-5.4V43.5z"/>
<path fill-rule="evenodd" clip-rule="evenodd" fill="#FFFFFF" d="M23.1,55h23.8v2.4H23.1V55z"/>
</svg>
